# xmcd CD database file
#
# Track frame offsets:
#	182
#	13215
#	31745
#	52415
#	75237
#	94470
#	116805
#	137792
#	139982
#	158197
#	182095
#	201635
#	223760
#	240630
#	260447
#
# Disc length: 3591 seconds
#
# Revision: 2
# Processed by: cddbd v1.4PL0 Copyright (c) Steve Scherf et al.
# Submitted via: CDex 1.40Release
#
DISCID=e50e050f
DTITLE=Pebbles - Straight From My Heart
DYEAR=1995
DGENRE=Soul
TTITLE0=Club Laid Back (Intro)
TTITLE1=Like The Last Time
TTITLE2="Are You Ready?"
TTITLE3=I Can't Help It
TTITLE4=You
TTITLE5=Happy
TTITLE6=Soul Replacement
TTITLE7=Club Laid Back (Reprise)
TTITLE8=It's Alright
TTITLE9=Show Me
TTITLE10=Straight From My Heart
TTITLE11=Angel
TTITLE12=One More Try
TTITLE13=Long Way To Travel
TTITLE14=Club Laid Back (Outro)
EXTD=YEAR: 1995 ID3G: 42
EXTT0=
EXTT1=
EXTT2=
EXTT3=
EXTT4=
EXTT5=
EXTT6=
EXTT7=
EXTT8=
EXTT9=
EXTT10=
EXTT11=
EXTT12=
EXTT13=
EXTT14=
PLAYORDER=
